solid smsDoorCase
facet normal 0.0 0.0 -1.0
  outer loop
    vertex 2.0565621206715217 107.81319446938922 28.999999999999996
    vertex 5.0565621206715194 66.81319446938922 28.999999999999993
    vertex 2.0565621206715217 5.813194469389216 28.999999999999996
  endloop
endfacet
facet normal 0.0 0.0 -1.0
  outer loop
    vertex 5.0565621206715194 66.81319446938922 28.999999999999993
    vertex 2.0565621206715217 107.81319446938922 28.999999999999996
    vertex 49.056562120671515 104.81319446938922 28.999999999999996
  endloop
endfacet
facet normal 0.0 0.0 -1.0
  outer loop
    vertex 49.056562120671515 104.81319446938922 28.999999999999996
    vertex 2.0565621206715217 107.81319446938922 28.999999999999996
    vertex 109.05656212067153 107.81319446938922 28.999999999999996
  endloop
endfacet
facet normal 0.0 0.0 -1.0
  outer loop
    vertex 5.0565621206715194 66.81319446938922 28.999999999999993
    vertex 49.056562120671515 104.81319446938922 28.999999999999996
    vertex 8.056562120671522 66.81319446938922 28.999999999999993
  endloop
endfacet
facet normal 0.0 0.0 -1.0
  outer loop
    vertex 8.056562120671522 66.81319446938922 28.999999999999993
    vertex 49.056562120671515 104.81319446938922 28.999999999999996
    vertex 8.056562120671522 51.81319446938922 28.999999999999993
  endloop
endfacet
facet normal 0.0 0.0 -1.0
  outer loop
    vertex 49.056562120671515 104.81319446938922 28.999999999999996
    vertex 109.05656212067153 107.81319446938922 28.999999999999996
    vertex 64.05656212067153 104.81319446938922 28.999999999999996
  endloop
endfacet
facet normal 0.0 0.0 -1.0
  outer loop
    vertex 64.05656212067153 104.81319446938922 28.999999999999996
    vertex 109.05656212067153 107.81319446938922 28.999999999999996
    vertex 64.05656212067153 101.81319446938923 28.999999999999996
  endloop
endfacet
facet normal 0.0 0.0 -1.0
  outer loop
    vertex 64.05656212067153 101.81319446938923 28.999999999999996
    vertex 109.05656212067153 107.81319446938922 28.999999999999996
    vertex 73.05656212067153 69.81319446938922 28.999999999999986
  endloop
endfacet
facet normal 0.0 0.0 -1.0
  outer loop
    vertex 64.05656212067153 101.81319446938923 28.999999999999996
    vertex 73.05656212067153 69.81319446938922 28.999999999999986
    vertex 64.05656212067153 12.813194469389215 28.999999999999996
  endloop
endfacet
facet normal 0.0 0.0 -1.0
  outer loop
    vertex 64.05656212067153 12.813194469389215 28.999999999999996
    vertex 73.05656212067153 69.81319446938922 28.999999999999986
    vertex 64.05656212067153 9.813194469389215 28.999999999999996
  endloop
endfacet
facet normal 0.0 0.0 -1.0
  outer loop
    vertex 73.05656212067153 69.81319446938922 28.999999999999986
    vertex 109.05656212067153 107.81319446938922 28.999999999999996
    vertex 86.05656212067153 69.81319446938922 28.999999999999986
  endloop
endfacet
facet normal 0.0 0.0 -1.0
  outer loop
    vertex 86.05656212067153 69.81319446938922 28.999999999999986
    vertex 109.05656212067153 107.81319446938922 28.999999999999996
    vertex 86.05656212067153 50.81319446938922 28.999999999999986
  endloop
endfacet
facet normal 0.0 0.0 -1.0
  outer loop
    vertex 86.05656212067153 50.81319446938922 28.999999999999986
    vertex 109.05656212067153 107.81319446938922 28.999999999999996
    vertex 103.05656212067154 76.81319446938922 28.999999999999993
  endloop
endfacet
facet normal 0.0 0.0 -1.0
  outer loop
    vertex 86.05656212067153 50.81319446938922 28.999999999999986
    vertex 103.05656212067154 76.81319446938922 28.999999999999993
    vertex 96.05656212067153 37.06319446938921 29.00000000000001
  endloop
endfacet
facet normal 0.0 0.0 -1.0
  outer loop
    vertex 103.05656212067154 76.81319446938922 28.999999999999993
    vertex 109.05656212067153 107.81319446938922 28.999999999999996
    vertex 106.05656212067154 76.81319446938922 28.999999999999993
  endloop
endfacet
facet normal 0.0 0.0 -1.0
  outer loop
    vertex 106.05656212067154 76.81319446938922 28.999999999999993
    vertex 109.05656212067153 107.81319446938922 28.999999999999996
    vertex 106.05656212067154 66.81319446938922 28.999999999999993
  endloop
endfacet
facet normal 0.0 0.0 -1.0
  outer loop
    vertex 106.05656212067154 66.81319446938922 28.999999999999993
    vertex 109.05656212067153 107.81319446938922 28.999999999999996
    vertex 106.05656212067154 51.81319446938922 28.999999999999993
  endloop
endfacet
facet normal 0.0 0.0 -1.0
  outer loop
    vertex 106.05656212067154 51.81319446938922 28.999999999999993
    vertex 109.05656212067153 107.81319446938922 28.999999999999996
    vertex 106.05656212067154 41.81319446938922 28.999999999999993
  endloop
endfacet
facet normal 0.0 0.0 -1.0
  outer loop
    vertex 106.05656212067154 41.81319446938922 28.999999999999993
    vertex 109.05656212067153 107.81319446938922 28.999999999999996
    vertex 106.05656212067154 37.06319446938921 29.00000000000001
  endloop
endfacet
facet normal 0.0 0.0 -1.0
  outer loop
    vertex 106.05656212067154 37.06319446938921 29.00000000000001
    vertex 109.05656212067153 107.81319446938922 28.999999999999996
    vertex 106.05656212067154 23.063194469389217 29.00000000000001
  endloop
endfacet
facet normal 0.0 0.0 -1.0
  outer loop
    vertex 2.0565621206715217 5.813194469389216 28.999999999999996
    vertex 49.056562120671515 9.813194469389215 28.999999999999996
    vertex 109.05656212067153 5.813194469389216 28.999999999999996
  endloop
endfacet
facet normal 0.0 0.0 -1.0
  outer loop
    vertex 49.056562120671515 9.813194469389215 28.999999999999996
    vertex 2.0565621206715217 5.813194469389216 28.999999999999996
    vertex 5.0565621206715194 51.81319446938922 28.999999999999993
  endloop
endfacet
facet normal 0.0 0.0 -1.0
  outer loop
    vertex 5.0565621206715194 51.81319446938922 28.999999999999993
    vertex 2.0565621206715217 5.813194469389216 28.999999999999996
    vertex 5.0565621206715194 66.81319446938922 28.999999999999993
  endloop
endfacet
facet normal 0.0 0.0 -1.0
  outer loop
    vertex 49.056562120671515 9.813194469389215 28.999999999999996
    vertex 5.0565621206715194 51.81319446938922 28.999999999999993
    vertex 8.056562120671522 51.81319446938922 28.999999999999993
  endloop
endfacet
facet normal 0.0 0.0 -1.0
  outer loop
    vertex 49.056562120671515 9.813194469389215 28.999999999999996
    vertex 8.056562120671522 51.81319446938922 28.999999999999993
    vertex 49.056562120671515 104.81319446938922 28.999999999999996
  endloop
endfacet
facet normal 0.0 0.0 -1.0
  outer loop
    vertex 49.056562120671515 9.813194469389215 28.999999999999996
    vertex 49.056562120671515 104.81319446938922 28.999999999999996
    vertex 49.056562120671515 101.81319446938923 28.999999999999996
  endloop
endfacet
facet normal 0.0 0.0 -1.0
  outer loop
    vertex 49.056562120671515 9.813194469389215 28.999999999999996
    vertex 49.056562120671515 101.81319446938923 28.999999999999996
    vertex 49.056562120671515 12.813194469389215 28.999999999999996
  endloop
endfacet
facet normal 0.0 0.0 -1.0
  outer loop
    vertex 109.05656212067153 5.813194469389216 28.999999999999996
    vertex 49.056562120671515 9.813194469389215 28.999999999999996
    vertex 64.05656212067153 9.813194469389215 28.999999999999996
  endloop
endfacet
facet normal 0.0 0.0 -1.0
  outer loop
    vertex 109.05656212067153 5.813194469389216 28.999999999999996
    vertex 64.05656212067153 9.813194469389215 28.999999999999996
    vertex 73.05656212067153 50.81319446938922 28.999999999999986
  endloop
endfacet
facet normal 0.0 0.0 -1.0
  outer loop
    vertex 73.05656212067153 50.81319446938922 28.999999999999986
    vertex 64.05656212067153 9.813194469389215 28.999999999999996
    vertex 73.05656212067153 69.81319446938922 28.999999999999986
  endloop
endfacet
facet normal 0.0 0.0 -1.0
  outer loop
    vertex 109.05656212067153 5.813194469389216 28.999999999999996
    vertex 73.05656212067153 50.81319446938922 28.999999999999986
    vertex 96.05656212067153 23.063194469389217 29.00000000000001
  endloop
endfacet
facet normal 0.0 0.0 -1.0
  outer loop
    vertex 96.05656212067153 23.063194469389217 29.00000000000001
    vertex 73.05656212067153 50.81319446938922 28.999999999999986
    vertex 86.05656212067153 50.81319446938922 28.999999999999986
  endloop
endfacet
facet normal 0.0 0.0 -1.0
  outer loop
    vertex 96.05656212067153 23.063194469389217 29.00000000000001
    vertex 86.05656212067153 50.81319446938922 28.999999999999986
    vertex 96.05656212067153 37.06319446938921 29.00000000000001
  endloop
endfacet
facet normal 0.0 0.0 -1.0
  outer loop
    vertex 109.05656212067153 5.813194469389216 28.999999999999996
    vertex 96.05656212067153 23.063194469389217 29.00000000000001
    vertex 106.05656212067154 23.063194469389217 29.00000000000001
  endloop
endfacet
facet normal 0.0 0.0 -1.0
  outer loop
    vertex 109.05656212067153 5.813194469389216 28.999999999999996
    vertex 106.05656212067154 23.063194469389217 29.00000000000001
    vertex 109.05656212067153 107.81319446938922 28.999999999999996
  endloop
endfacet
facet normal 0.0 0.0 -1.0
  outer loop
    vertex 96.05656212067153 37.06319446938921 29.00000000000001
    vertex 103.05656212067154 41.81319446938922 28.999999999999993
    vertex 106.05656212067154 37.06319446938921 29.00000000000001
  endloop
endfacet
facet normal 0.0 0.0 -1.0
  outer loop
    vertex 103.05656212067154 41.81319446938922 28.999999999999993
    vertex 96.05656212067153 37.06319446938921 29.00000000000001
    vertex 103.05656212067154 76.81319446938922 28.999999999999993
  endloop
endfacet
facet normal 0.0 0.0 -1.0
  outer loop
    vertex 103.05656212067154 41.81319446938922 28.999999999999993
    vertex 103.05656212067154 76.81319446938922 28.999999999999993
    vertex 103.05656212067154 66.81319446938922 28.999999999999993
  endloop
endfacet
facet normal 0.0 0.0 -1.0
  outer loop
    vertex 103.05656212067154 41.81319446938922 28.999999999999993
    vertex 103.05656212067154 66.81319446938922 28.999999999999993
    vertex 103.05656212067154 51.81319446938922 28.999999999999993
  endloop
endfacet
facet normal 0.0 0.0 -1.0
  outer loop
    vertex 106.05656212067154 37.06319446938921 29.00000000000001
    vertex 103.05656212067154 41.81319446938922 28.999999999999993
    vertex 106.05656212067154 41.81319446938922 28.999999999999993
  endloop
endfacet
facet normal 0.0 0.0 -1.0
  outer loop
    vertex 106.05656212067154 66.81319446938922 28.999999999999993
    vertex 103.05656212067154 51.81319446938922 28.999999999999993
    vertex 103.05656212067154 66.81319446938922 28.999999999999993
  endloop
endfacet
facet normal 0.0 0.0 -1.0
  outer loop
    vertex 103.05656212067154 51.81319446938922 28.999999999999993
    vertex 106.05656212067154 66.81319446938922 28.999999999999993
    vertex 106.05656212067154 51.81319446938922 28.999999999999993
  endloop
endfacet
facet normal 0.0 0.0 -1.0
  outer loop
    vertex 64.05656212067153 101.81319446938923 28.999999999999996
    vertex 49.056562120671515 12.813194469389215 28.999999999999996
    vertex 49.056562120671515 101.81319446938923 28.999999999999996
  endloop
endfacet
facet normal 0.0 0.0 -1.0
  outer loop
    vertex 49.056562120671515 12.813194469389215 28.999999999999996
    vertex 64.05656212067153 101.81319446938923 28.999999999999996
    vertex 64.05656212067153 12.813194469389215 28.999999999999996
  endloop
endfacet
facet normal 0.0 1.0 0.0
  outer loop
    vertex 2.0565621206715217 107.81319446938922 31.999999999999996
    vertex 109.05656212067153 107.81319446938922 28.999999999999996
    vertex 2.0565621206715217 107.81319446938922 28.999999999999996
  endloop
endfacet
facet normal 0.0 1.0 0.0
  outer loop
    vertex 109.05656212067153 107.81319446938922 28.999999999999996
    vertex 2.0565621206715217 107.81319446938922 31.999999999999996
    vertex 109.05656212067153 107.81319446938922 31.999999999999996
  endloop
endfacet
facet normal 0.0 0.0 1.0
  outer loop
    vertex 109.05656212067153 5.813194469389216 31.999999999999996
    vertex 2.0565621206715217 107.81319446938922 31.999999999999996
    vertex 2.0565621206715217 5.813194469389216 31.999999999999996
  endloop
endfacet
facet normal 0.0 0.0 1.0
  outer loop
    vertex 2.0565621206715217 107.81319446938922 31.999999999999996
    vertex 109.05656212067153 5.813194469389216 31.999999999999996
    vertex 73.05656212067153 50.81319446938922 31.999999999999996
  endloop
endfacet
facet normal 0.0 0.0 1.0
  outer loop
    vertex 73.05656212067153 50.81319446938922 31.999999999999996
    vertex 109.05656212067153 5.813194469389216 31.999999999999996
    vertex 96.05656212067153 23.063194469389217 31.999999999999996
  endloop
endfacet
facet normal 0.0 0.0 1.0
  outer loop
    vertex 73.05656212067153 50.81319446938922 31.999999999999996
    vertex 96.05656212067153 23.063194469389217 31.999999999999996
    vertex 86.05656212067153 50.81319446938922 31.999999999999996
  endloop
endfacet
facet normal 0.0 0.0 1.0
  outer loop
    vertex 86.05656212067153 50.81319446938922 31.999999999999996
    vertex 96.05656212067153 23.063194469389217 31.999999999999996
    vertex 86.05656212067153 69.81319446938922 31.999999999999996
  endloop
endfacet
facet normal 0.0 0.0 1.0
  outer loop
    vertex 96.05656212067153 23.063194469389217 31.999999999999996
    vertex 109.05656212067153 5.813194469389216 31.999999999999996
    vertex 106.05656212067154 23.063194469389217 31.999999999999996
  endloop
endfacet
facet normal 0.0 0.0 1.0
  outer loop
    vertex 106.05656212067154 23.063194469389217 31.999999999999996
    vertex 109.05656212067153 5.813194469389216 31.999999999999996
    vertex 106.05656212067154 37.06319446938921 31.999999999999996
  endloop
endfacet
facet normal 0.0 0.0 1.0
  outer loop
    vertex 2.0565621206715217 107.81319446938922 31.999999999999996
    vertex 73.05656212067153 69.81319446938922 31.999999999999996
    vertex 109.05656212067153 107.81319446938922 31.999999999999996
  endloop
endfacet
facet normal 0.0 0.0 1.0
  outer loop
    vertex 73.05656212067153 69.81319446938922 31.999999999999996
    vertex 2.0565621206715217 107.81319446938922 31.999999999999996
    vertex 73.05656212067153 50.81319446938922 31.999999999999996
  endloop
endfacet
facet normal 0.0 0.0 1.0
  outer loop
    vertex 109.05656212067153 107.81319446938922 31.999999999999996
    vertex 73.05656212067153 69.81319446938922 31.999999999999996
    vertex 86.05656212067153 69.81319446938922 31.999999999999996
  endloop
endfacet
facet normal 0.0 0.0 1.0
  outer loop
    vertex 109.05656212067153 107.81319446938922 31.999999999999996
    vertex 86.05656212067153 69.81319446938922 31.999999999999996
    vertex 96.05656212067153 37.06319446938921 31.999999999999996
  endloop
endfacet
facet normal 0.0 0.0 1.0
  outer loop
    vertex 96.05656212067153 37.06319446938921 31.999999999999996
    vertex 86.05656212067153 69.81319446938922 31.999999999999996
    vertex 96.05656212067153 23.063194469389217 31.999999999999996
  endloop
endfacet
facet normal 0.0 0.0 1.0
  outer loop
    vertex 109.05656212067153 107.81319446938922 31.999999999999996
    vertex 96.05656212067153 37.06319446938921 31.999999999999996
    vertex 106.05656212067154 37.06319446938921 31.999999999999996
  endloop
endfacet
facet normal 0.0 0.0 1.0
  outer loop
    vertex 109.05656212067153 107.81319446938922 31.999999999999996
    vertex 106.05656212067154 37.06319446938921 31.999999999999996
    vertex 109.05656212067153 5.813194469389216 31.999999999999996
  endloop
endfacet
facet normal -0.0 -1.0 -0.0
  outer loop
    vertex 109.05656212067153 5.813194469389216 31.999999999999996
    vertex 2.0565621206715217 5.813194469389216 28.999999999999996
    vertex 109.05656212067153 5.813194469389216 28.999999999999996
  endloop
endfacet
facet normal -0.0 -1.0 -0.0
  outer loop
    vertex 2.0565621206715217 5.813194469389216 28.999999999999996
    vertex 109.05656212067153 5.813194469389216 31.999999999999996
    vertex 2.0565621206715217 5.813194469389216 31.999999999999996
  endloop
endfacet
facet normal -1.0 0.0 0.0
  outer loop
    vertex 2.0565621206715217 107.81319446938922 31.999999999999996
    vertex 2.0565621206715217 5.813194469389216 28.999999999999996
    vertex 2.0565621206715217 5.813194469389216 31.999999999999996
  endloop
endfacet
facet normal -1.0 0.0 0.0
  outer loop
    vertex 2.0565621206715217 5.813194469389216 28.999999999999996
    vertex 2.0565621206715217 107.81319446938922 31.999999999999996
    vertex 2.0565621206715217 107.81319446938922 28.999999999999996
  endloop
endfacet
facet normal 1.0 0.0 0.0
  outer loop
    vertex 109.05656212067153 107.81319446938922 28.999999999999996
    vertex 109.05656212067153 5.813194469389216 31.999999999999996
    vertex 109.05656212067153 5.813194469389216 28.999999999999996
  endloop
endfacet
facet normal 1.0 0.0 0.0
  outer loop
    vertex 109.05656212067153 5.813194469389216 31.999999999999996
    vertex 109.05656212067153 107.81319446938922 28.999999999999996
    vertex 109.05656212067153 107.81319446938922 31.999999999999996
  endloop
endfacet
facet normal 0.0 0.0 -1.0
  outer loop
    vertex 64.05656212067153 12.813194469389215 24.0
    vertex 49.056562120671515 9.813194469389215 24.0
    vertex 49.056562120671515 12.813194469389215 24.0
  endloop
endfacet
facet normal 0.0 0.0 -1.0
  outer loop
    vertex 49.056562120671515 9.813194469389215 24.0
    vertex 64.05656212067153 12.813194469389215 24.0
    vertex 64.05656212067153 9.813194469389215 24.0
  endloop
endfacet
facet normal -1.0 0.0 0.0
  outer loop
    vertex 49.056562120671515 12.813194469389215 28.999999999999996
    vertex 49.056562120671515 9.813194469389215 24.0
    vertex 49.056562120671515 9.813194469389215 28.999999999999996
  endloop
endfacet
facet normal -1.0 0.0 0.0
  outer loop
    vertex 49.056562120671515 9.813194469389215 24.0
    vertex 49.056562120671515 12.813194469389215 28.999999999999996
    vertex 49.056562120671515 12.813194469389215 24.0
  endloop
endfacet
facet normal 0.0 1.0 0.0
  outer loop
    vertex 49.056562120671515 12.813194469389215 28.999999999999996
    vertex 64.05656212067153 12.813194469389215 24.0
    vertex 49.056562120671515 12.813194469389215 24.0
  endloop
endfacet
facet normal 0.0 1.0 0.0
  outer loop
    vertex 64.05656212067153 12.813194469389215 24.0
    vertex 49.056562120671515 12.813194469389215 28.999999999999996
    vertex 64.05656212067153 12.813194469389215 28.999999999999996
  endloop
endfacet
facet normal 1.0 0.0 0.0
  outer loop
    vertex 64.05656212067153 12.813194469389215 24.0
    vertex 64.05656212067153 9.813194469389215 28.999999999999996
    vertex 64.05656212067153 9.813194469389215 24.0
  endloop
endfacet
facet normal 1.0 0.0 0.0
  outer loop
    vertex 64.05656212067153 9.813194469389215 28.999999999999996
    vertex 64.05656212067153 12.813194469389215 24.0
    vertex 64.05656212067153 12.813194469389215 28.999999999999996
  endloop
endfacet
facet normal -0.0 -1.0 -0.0
  outer loop
    vertex 64.05656212067153 9.813194469389215 28.999999999999996
    vertex 49.056562120671515 9.813194469389215 24.0
    vertex 64.05656212067153 9.813194469389215 24.0
  endloop
endfacet
facet normal -0.0 -1.0 -0.0
  outer loop
    vertex 49.056562120671515 9.813194469389215 24.0
    vertex 64.05656212067153 9.813194469389215 28.999999999999996
    vertex 49.056562120671515 9.813194469389215 28.999999999999996
  endloop
endfacet
facet normal 0.0 0.0 -1.0
  outer loop
    vertex 64.05656212067153 104.81319446938922 24.0
    vertex 49.056562120671515 101.81319446938923 24.0
    vertex 49.056562120671515 104.81319446938922 24.0
  endloop
endfacet
facet normal 0.0 0.0 -1.0
  outer loop
    vertex 49.056562120671515 101.81319446938923 24.0
    vertex 64.05656212067153 104.81319446938922 24.0
    vertex 64.05656212067153 101.81319446938923 24.0
  endloop
endfacet
facet normal 0.0 1.0 0.0
  outer loop
    vertex 49.056562120671515 104.81319446938922 28.999999999999996
    vertex 64.05656212067153 104.81319446938922 24.0
    vertex 49.056562120671515 104.81319446938922 24.0
  endloop
endfacet
facet normal 0.0 1.0 0.0
  outer loop
    vertex 64.05656212067153 104.81319446938922 24.0
    vertex 49.056562120671515 104.81319446938922 28.999999999999996
    vertex 64.05656212067153 104.81319446938922 28.999999999999996
  endloop
endfacet
facet normal 1.0 0.0 0.0
  outer loop
    vertex 64.05656212067153 104.81319446938922 24.0
    vertex 64.05656212067153 101.81319446938923 28.999999999999996
    vertex 64.05656212067153 101.81319446938923 24.0
  endloop
endfacet
facet normal 1.0 0.0 0.0
  outer loop
    vertex 64.05656212067153 101.81319446938923 28.999999999999996
    vertex 64.05656212067153 104.81319446938922 24.0
    vertex 64.05656212067153 104.81319446938922 28.999999999999996
  endloop
endfacet
facet normal -0.0 -1.0 -0.0
  outer loop
    vertex 64.05656212067153 101.81319446938923 28.999999999999996
    vertex 49.056562120671515 101.81319446938923 24.0
    vertex 64.05656212067153 101.81319446938923 24.0
  endloop
endfacet
facet normal -0.0 -1.0 -0.0
  outer loop
    vertex 49.056562120671515 101.81319446938923 24.0
    vertex 64.05656212067153 101.81319446938923 28.999999999999996
    vertex 49.056562120671515 101.81319446938923 28.999999999999996
  endloop
endfacet
facet normal -1.0 0.0 0.0
  outer loop
    vertex 49.056562120671515 104.81319446938922 28.999999999999996
    vertex 49.056562120671515 101.81319446938923 24.0
    vertex 49.056562120671515 101.81319446938923 28.999999999999996
  endloop
endfacet
facet normal -1.0 0.0 0.0
  outer loop
    vertex 49.056562120671515 101.81319446938923 24.0
    vertex 49.056562120671515 104.81319446938922 28.999999999999996
    vertex 49.056562120671515 104.81319446938922 24.0
  endloop
endfacet
facet normal 0.0 0.0 -1.0
  outer loop
    vertex 8.056562120671522 66.81319446938922 23.999999999999993
    vertex 5.0565621206715194 51.81319446938922 23.999999999999993
    vertex 5.0565621206715194 66.81319446938922 23.999999999999993
  endloop
endfacet
facet normal 0.0 0.0 -1.0
  outer loop
    vertex 5.0565621206715194 51.81319446938922 23.999999999999993
    vertex 8.056562120671522 66.81319446938922 23.999999999999993
    vertex 8.056562120671522 51.81319446938922 23.999999999999993
  endloop
endfacet
facet normal 0.0 1.0 0.0
  outer loop
    vertex 5.0565621206715194 66.81319446938922 28.999999999999993
    vertex 8.056562120671522 66.81319446938922 23.999999999999993
    vertex 5.0565621206715194 66.81319446938922 23.999999999999993
  endloop
endfacet
facet normal 0.0 1.0 0.0
  outer loop
    vertex 8.056562120671522 66.81319446938922 23.999999999999993
    vertex 5.0565621206715194 66.81319446938922 28.999999999999993
    vertex 8.056562120671522 66.81319446938922 28.999999999999993
  endloop
endfacet
facet normal 1.0 0.0 0.0
  outer loop
    vertex 8.056562120671522 66.81319446938922 23.999999999999993
    vertex 8.056562120671522 51.81319446938922 28.999999999999993
    vertex 8.056562120671522 51.81319446938922 23.999999999999993
  endloop
endfacet
facet normal 1.0 0.0 0.0
  outer loop
    vertex 8.056562120671522 51.81319446938922 28.999999999999993
    vertex 8.056562120671522 66.81319446938922 23.999999999999993
    vertex 8.056562120671522 66.81319446938922 28.999999999999993
  endloop
endfacet
facet normal -0.0 -1.0 -0.0
  outer loop
    vertex 8.056562120671522 51.81319446938922 28.999999999999993
    vertex 5.0565621206715194 51.81319446938922 23.999999999999993
    vertex 8.056562120671522 51.81319446938922 23.999999999999993
  endloop
endfacet
facet normal -0.0 -1.0 -0.0
  outer loop
    vertex 5.0565621206715194 51.81319446938922 23.999999999999993
    vertex 8.056562120671522 51.81319446938922 28.999999999999993
    vertex 5.0565621206715194 51.81319446938922 28.999999999999993
  endloop
endfacet
facet normal -1.0 0.0 0.0
  outer loop
    vertex 5.0565621206715194 66.81319446938922 28.999999999999993
    vertex 5.0565621206715194 51.81319446938922 23.999999999999993
    vertex 5.0565621206715194 51.81319446938922 28.999999999999993
  endloop
endfacet
facet normal -1.0 0.0 0.0
  outer loop
    vertex 5.0565621206715194 51.81319446938922 23.999999999999993
    vertex 5.0565621206715194 66.81319446938922 28.999999999999993
    vertex 5.0565621206715194 66.81319446938922 23.999999999999993
  endloop
endfacet
facet normal 0.0 1.0 0.0
  outer loop
    vertex 96.05656212067153 23.063194469389217 31.999999999999996
    vertex 106.05656212067154 23.063194469389217 29.00000000000001
    vertex 96.05656212067153 23.063194469389217 29.00000000000001
  endloop
endfacet
facet normal 0.0 1.0 0.0
  outer loop
    vertex 106.05656212067154 23.063194469389217 29.00000000000001
    vertex 96.05656212067153 23.063194469389217 31.999999999999996
    vertex 106.05656212067154 23.063194469389217 31.999999999999996
  endloop
endfacet
facet normal -1.0 0.0 0.0
  outer loop
    vertex 106.05656212067154 37.06319446938921 31.999999999999996
    vertex 106.05656212067154 23.063194469389217 29.00000000000001
    vertex 106.05656212067154 23.063194469389217 31.999999999999996
  endloop
endfacet
facet normal -1.0 0.0 0.0
  outer loop
    vertex 106.05656212067154 23.063194469389217 29.00000000000001
    vertex 106.05656212067154 37.06319446938921 31.999999999999996
    vertex 106.05656212067154 37.06319446938921 29.00000000000001
  endloop
endfacet
facet normal -0.0 -1.0 -0.0
  outer loop
    vertex 106.05656212067154 37.06319446938921 31.999999999999996
    vertex 96.05656212067153 37.06319446938921 29.00000000000001
    vertex 106.05656212067154 37.06319446938921 29.00000000000001
  endloop
endfacet
facet normal -0.0 -1.0 -0.0
  outer loop
    vertex 96.05656212067153 37.06319446938921 29.00000000000001
    vertex 106.05656212067154 37.06319446938921 31.999999999999996
    vertex 96.05656212067153 37.06319446938921 31.999999999999996
  endloop
endfacet
facet normal 1.0 0.0 0.0
  outer loop
    vertex 96.05656212067153 37.06319446938921 29.00000000000001
    vertex 96.05656212067153 23.063194469389217 31.999999999999996
    vertex 96.05656212067153 23.063194469389217 29.00000000000001
  endloop
endfacet
facet normal 1.0 0.0 0.0
  outer loop
    vertex 96.05656212067153 23.063194469389217 31.999999999999996
    vertex 96.05656212067153 37.06319446938921 29.00000000000001
    vertex 96.05656212067153 37.06319446938921 31.999999999999996
  endloop
endfacet
facet normal 0.0 1.0 0.0
  outer loop
    vertex 73.05656212067153 50.81319446938922 31.999999999999996
    vertex 86.05656212067153 50.81319446938922 28.999999999999986
    vertex 73.05656212067153 50.81319446938922 28.999999999999986
  endloop
endfacet
facet normal 0.0 1.0 0.0
  outer loop
    vertex 86.05656212067153 50.81319446938922 28.999999999999986
    vertex 73.05656212067153 50.81319446938922 31.999999999999996
    vertex 86.05656212067153 50.81319446938922 31.999999999999996
  endloop
endfacet
facet normal -1.0 0.0 0.0
  outer loop
    vertex 86.05656212067153 69.81319446938922 31.999999999999996
    vertex 86.05656212067153 50.81319446938922 28.999999999999986
    vertex 86.05656212067153 50.81319446938922 31.999999999999996
  endloop
endfacet
facet normal -1.0 0.0 0.0
  outer loop
    vertex 86.05656212067153 50.81319446938922 28.999999999999986
    vertex 86.05656212067153 69.81319446938922 31.999999999999996
    vertex 86.05656212067153 69.81319446938922 28.999999999999986
  endloop
endfacet
facet normal -0.0 -1.0 -0.0
  outer loop
    vertex 86.05656212067153 69.81319446938922 31.999999999999996
    vertex 73.05656212067153 69.81319446938922 28.999999999999986
    vertex 86.05656212067153 69.81319446938922 28.999999999999986
  endloop
endfacet
facet normal -0.0 -1.0 -0.0
  outer loop
    vertex 73.05656212067153 69.81319446938922 28.999999999999986
    vertex 86.05656212067153 69.81319446938922 31.999999999999996
    vertex 73.05656212067153 69.81319446938922 31.999999999999996
  endloop
endfacet
facet normal 1.0 0.0 0.0
  outer loop
    vertex 73.05656212067153 69.81319446938922 28.999999999999986
    vertex 73.05656212067153 50.81319446938922 31.999999999999996
    vertex 73.05656212067153 50.81319446938922 28.999999999999986
  endloop
endfacet
facet normal 1.0 0.0 0.0
  outer loop
    vertex 73.05656212067153 50.81319446938922 31.999999999999996
    vertex 73.05656212067153 69.81319446938922 28.999999999999986
    vertex 73.05656212067153 69.81319446938922 31.999999999999996
  endloop
endfacet
facet normal 0.0 0.0 -1.0
  outer loop
    vertex 106.05656212067154 76.81319446938922 23.99999999999999
    vertex 103.05656212067154 66.81319446938922 23.99999999999999
    vertex 103.05656212067154 76.81319446938922 23.99999999999999
  endloop
endfacet
facet normal 0.0 0.0 -1.0
  outer loop
    vertex 103.05656212067154 66.81319446938922 23.99999999999999
    vertex 106.05656212067154 76.81319446938922 23.99999999999999
    vertex 106.05656212067154 66.81319446938922 23.99999999999999
  endloop
endfacet
facet normal -0.0 -1.0 -0.0
  outer loop
    vertex 106.05656212067154 66.81319446938922 28.999999999999993
    vertex 103.05656212067154 66.81319446938922 23.99999999999999
    vertex 106.05656212067154 66.81319446938922 23.99999999999999
  endloop
endfacet
facet normal -0.0 -1.0 -0.0
  outer loop
    vertex 103.05656212067154 66.81319446938922 23.99999999999999
    vertex 106.05656212067154 66.81319446938922 28.999999999999993
    vertex 103.05656212067154 66.81319446938922 28.999999999999993
  endloop
endfacet
facet normal -1.0 0.0 0.0
  outer loop
    vertex 103.05656212067154 76.81319446938922 28.999999999999993
    vertex 103.05656212067154 66.81319446938922 23.99999999999999
    vertex 103.05656212067154 66.81319446938922 28.999999999999993
  endloop
endfacet
facet normal -1.0 0.0 0.0
  outer loop
    vertex 103.05656212067154 66.81319446938922 23.99999999999999
    vertex 103.05656212067154 76.81319446938922 28.999999999999993
    vertex 103.05656212067154 76.81319446938922 23.99999999999999
  endloop
endfacet
facet normal 0.0 1.0 0.0
  outer loop
    vertex 103.05656212067154 76.81319446938922 28.999999999999993
    vertex 106.05656212067154 76.81319446938922 23.99999999999999
    vertex 103.05656212067154 76.81319446938922 23.99999999999999
  endloop
endfacet
facet normal 0.0 1.0 0.0
  outer loop
    vertex 106.05656212067154 76.81319446938922 23.99999999999999
    vertex 103.05656212067154 76.81319446938922 28.999999999999993
    vertex 106.05656212067154 76.81319446938922 28.999999999999993
  endloop
endfacet
facet normal 1.0 0.0 0.0
  outer loop
    vertex 106.05656212067154 76.81319446938922 23.99999999999999
    vertex 106.05656212067154 66.81319446938922 28.999999999999993
    vertex 106.05656212067154 66.81319446938922 23.99999999999999
  endloop
endfacet
facet normal 1.0 0.0 0.0
  outer loop
    vertex 106.05656212067154 66.81319446938922 28.999999999999993
    vertex 106.05656212067154 76.81319446938922 23.99999999999999
    vertex 106.05656212067154 76.81319446938922 28.999999999999993
  endloop
endfacet
facet normal 0.0 0.0 -1.0
  outer loop
    vertex 106.05656212067154 51.81319446938922 23.99999999999999
    vertex 103.05656212067154 41.81319446938922 23.99999999999999
    vertex 103.05656212067154 51.81319446938922 23.99999999999999
  endloop
endfacet
facet normal 0.0 0.0 -1.0
  outer loop
    vertex 103.05656212067154 41.81319446938922 23.99999999999999
    vertex 106.05656212067154 51.81319446938922 23.99999999999999
    vertex 106.05656212067154 41.81319446938922 23.99999999999999
  endloop
endfacet
facet normal 0.0 1.0 0.0
  outer loop
    vertex 103.05656212067154 51.81319446938922 28.999999999999993
    vertex 106.05656212067154 51.81319446938922 23.99999999999999
    vertex 103.05656212067154 51.81319446938922 23.99999999999999
  endloop
endfacet
facet normal 0.0 1.0 0.0
  outer loop
    vertex 106.05656212067154 51.81319446938922 23.99999999999999
    vertex 103.05656212067154 51.81319446938922 28.999999999999993
    vertex 106.05656212067154 51.81319446938922 28.999999999999993
  endloop
endfacet
facet normal 1.0 0.0 0.0
  outer loop
    vertex 106.05656212067154 51.81319446938922 23.99999999999999
    vertex 106.05656212067154 41.81319446938922 28.999999999999993
    vertex 106.05656212067154 41.81319446938922 23.99999999999999
  endloop
endfacet
facet normal 1.0 0.0 0.0
  outer loop
    vertex 106.05656212067154 41.81319446938922 28.999999999999993
    vertex 106.05656212067154 51.81319446938922 23.99999999999999
    vertex 106.05656212067154 51.81319446938922 28.999999999999993
  endloop
endfacet
facet normal -0.0 -1.0 -0.0
  outer loop
    vertex 106.05656212067154 41.81319446938922 28.999999999999993
    vertex 103.05656212067154 41.81319446938922 23.99999999999999
    vertex 106.05656212067154 41.81319446938922 23.99999999999999
  endloop
endfacet
facet normal -0.0 -1.0 -0.0
  outer loop
    vertex 103.05656212067154 41.81319446938922 23.99999999999999
    vertex 106.05656212067154 41.81319446938922 28.999999999999993
    vertex 103.05656212067154 41.81319446938922 28.999999999999993
  endloop
endfacet
facet normal -1.0 0.0 0.0
  outer loop
    vertex 103.05656212067154 51.81319446938922 28.999999999999993
    vertex 103.05656212067154 41.81319446938922 23.99999999999999
    vertex 103.05656212067154 41.81319446938922 28.999999999999993
  endloop
endfacet
facet normal -1.0 0.0 0.0
  outer loop
    vertex 103.05656212067154 41.81319446938922 23.99999999999999
    vertex 103.05656212067154 51.81319446938922 28.999999999999993
    vertex 103.05656212067154 51.81319446938922 23.99999999999999
  endloop
endfacet
endsolid smsDoorCase
